<?xml version="1.0" encoding="utf-8" ?><svg xmlns="http://www.w3.org/2000/svg" xmlns:xlink="http://www.w3.org/1999/xlink" width="1024" height="1024" viewBox="0 0 1024 1024"><path fill="#8D99AE" transform="scale(2 2)" d="M99.4882 155.734C99.3368 135.523 102.842 134.986 123.196 134.479C124.689 134.27 127.067 134.484 128.647 134.458C166.92 133.809 205.717 139.349 241.971 151.763C246.645 153.363 251.37 155.284 256.103 156.694C260.314 155.578 265.335 153.389 269.539 151.967C307.301 139.188 347.066 133.591 386.878 134.473C406.373 134.904 412.906 133.645 412.742 155.734C419.58 155.759 427.671 154.426 432.751 159.472C438.778 165.458 436.941 177.574 436.942 185.683L437.118 341.124C437.267 357.415 420.765 355.322 409.502 355.325L389.875 355.314C352.885 355.289 323.674 355.423 287.432 368.338C251.761 381.049 256.475 378.459 221.084 367.039C187.162 356.094 153.715 355.293 118.495 355.306L96.4864 355.324C86.1264 355.369 75.2846 356.098 75.1867 342.078L75.1484 187.009C75.1341 162.399 70.9978 155.573 99.4882 155.734ZM130.231 143.685C125.889 143.722 113.386 144.002 109.26 144.793C109.026 151.335 109.258 159.177 109.259 165.844L109.26 317.233C112.471 321.397 118.544 320.193 123.689 320.104C165.303 319.384 212.393 324.548 251.183 341.165L251.15 328.491C251.133 325.899 250.865 322.976 251.356 320.437C252.106 316.557 257.34 315.8 259.713 318.615C261.948 321.265 260.694 337.047 260.921 341.165C297.618 326.344 336.88 320.469 376.307 320.49C380.221 320.492 401.203 321.096 402.452 319.64C403.028 316.358 402.841 311.575 402.842 308.099L402.834 229.375L402.839 175.773C402.839 170.81 403.209 148.685 402.164 145.57C399.754 143.304 390.015 144.175 386.353 144.107C341.529 143.279 302.617 150.288 260.921 165.306L260.925 281.581C260.933 286.183 260.992 290.807 260.911 295.4C260.794 301.999 251.447 301.648 251.272 295.586C251.122 290.393 251.171 285.19 251.172 279.995L251.183 165.306C207.888 151.076 177.6 143.598 130.231 143.685ZM88.0817 165.306C82.7617 166.065 84.9234 173.1 84.9251 178.206L84.9189 331.915C84.9118 334.048 84.5628 343.746 85.424 345.063C90.474 346.771 142.116 345.436 150.473 345.599C178.562 346.148 206.908 351.203 233.316 360.75C256.837 369.253 257.297 368.283 280.646 360.01C304.759 351.467 331.581 346.311 357.216 345.621C365.015 345.411 423.45 346.289 425.899 344.916C428.375 343.528 427.331 329.727 427.332 326.392L427.328 182.821C427.363 168.624 430.936 165.194 416.813 165.277L412.742 165.306L412.738 304.886C412.754 325.885 413.993 330.306 392.953 330.218L374.934 330.169C339.581 330.243 305.741 335.25 272.572 347.285C267.123 349.262 261.585 351.645 256.103 353.392C251.305 352.029 246.899 349.936 242.223 348.243C201.871 333.627 163.518 328.863 120.919 329.599C116.99 329.494 112.569 329.966 108.793 328.83C96.7833 325.217 99.4727 309.564 99.477 299.795L99.4882 165.306L88.0817 165.306Z"/><path fill="#8D99AE" transform="scale(2 2)" d="M315.153 192.571C312.222 193.05 307.687 194.773 305.096 192.786C302.989 191.17 302.313 187.545 304.272 185.549C308.617 181.124 346.027 179.442 356.924 179.462C375.421 178.886 368.581 188.874 364.755 189.073C347.832 190.605 333.43 189.495 315.153 192.571Z"/><path fill="#8D99AE" transform="scale(2 2)" d="M190.712 265.527C182.647 270.583 154.812 293.202 150.135 272.918C149.31 269.343 149.686 265.238 149.695 261.582L149.697 228.145C149.686 219.688 148.016 209.744 158.731 207.308C161.096 207.15 163.34 207.343 165.422 208.602C171.045 212.002 212.735 236.345 214.089 238.621C219.838 248.285 210.617 252.856 204.384 256.839L190.712 265.527ZM159.256 216.781C157.792 223.786 159.244 259.314 159.287 267.911C159.293 269.135 159.211 272.503 161.178 272.088C162.379 271.835 185.838 257.095 188.495 255.414C193.641 252.244 201.237 247.856 205.931 244.277C198.4 239.929 164.354 218.106 159.256 216.781Z"/><path fill="#8D99AE" transform="scale(2 2)" d="M321.189 221.351C316.378 221.968 304.349 226.387 303.266 219.792C300.553 209.458 343.022 209.438 350.063 208.985C354.802 208.957 361.712 208.457 366.214 209.726C370.611 210.966 369.697 218.67 364.736 218.677C350.123 218.697 335.695 219.104 321.189 221.351Z"/><path fill="#8D99AE" transform="scale(2 2)" d="M306.346 253.507C303.345 251.755 301.779 248.218 304.386 245.221C307.608 241.516 344.483 239.32 351.278 239.063C354.959 239.079 359.896 239.031 363.535 238.952C370.877 238.791 370.147 248.31 364.87 248.378C349.39 248.577 334.341 249.369 319.01 251.807C314.753 252.381 310.663 253.514 306.346 253.507Z"/><path fill="#8D99AE" transform="scale(2 2)" d="M313.556 282.982C310.955 283.456 307.032 284.733 304.815 282.704C302.864 280.916 302.65 277.372 304.58 275.489C308.706 271.461 347.689 268.761 358.169 269.18C369.712 266.121 374.825 278.537 360.821 278.615C345.025 278.703 329.102 280.192 313.556 282.982Z"/></svg>