<?xml version="1.0" encoding="utf-8" ?><svg xmlns="http://www.w3.org/2000/svg" xmlns:xlink="http://www.w3.org/1999/xlink" width="1024" height="1024" viewBox="0 0 1024 1024"><path fill="#8D99AE" transform="scale(2 2)" d="M188.262 170.257C216.335 124.704 258.008 103.107 312.271 102.43C360.495 99.6227 416.153 124.763 440.169 167.674C465.463 212.868 452.398 263.73 412.321 295.919C409.795 297.948 407.24 299.835 404.874 301.999C404.69 305.906 404.862 311.182 404.864 315.226L404.879 341.621C404.881 346.7 405.019 351.773 404.645 356.842C403.758 368.853 389.59 355.63 386.33 353.069L368.788 339.242C364.016 335.411 354.323 328.243 350.317 324.406C331.36 327.684 318.659 326.182 301.338 327.494C299.088 329.315 297.034 331.761 294.909 333.773C267.9 359.348 234.219 370.744 197.4 372.144C186.575 372.427 173.586 371.474 162.951 369.561C158.981 372.394 154.619 376.243 150.82 379.403L126.054 400.382C123.704 402.379 115.192 410.91 112.194 410.842C104.381 410.665 107.202 394.532 107.205 388.469L107.215 350.842C54.8685 317.217 41.1439 254.532 86.1591 209.236C111.737 183.499 152.104 170.132 188.262 170.257ZM313.779 113.214C277.184 113.203 241.597 125.251 215.51 151.576C178.677 188.745 179.366 243.057 216.811 279.452C250.707 312.398 300.856 322.24 346.441 313.979C348.798 313.623 350.561 313.329 352.96 313.275C361.628 317.335 384.879 338.324 394.028 344.981L394.016 310.332C394.01 295.131 391.133 298.189 402.634 289.524C449.027 254.57 456.369 195.109 415.664 152.702C389.074 125 351.432 113.193 313.779 113.214ZM180.556 181.352C145.438 184.643 111.503 195.508 88.0845 223.343C54.6342 263.512 70.4291 315.739 113.148 341.705C120.897 346.416 118.254 353.662 118.252 362.714L118.235 392.547L146.335 368.993C148.559 367.165 158.631 357.832 161.008 358.292C169.89 360.011 178.195 360.539 187.156 361.245C220.942 361.287 255.306 353.16 281.634 331.002C283.578 329.366 285.74 327.3 287.922 326.091C283.937 324.672 279.856 324.079 275.768 323.088C241.132 314.694 205.852 293.367 189.514 260.835C189.254 264.569 189.44 268.109 189.493 271.837L189.552 285.563C189.555 288.574 189.688 291.663 189.314 294.608C188.505 300.987 179.1 300.017 178.8 293.022C178.711 286.964 178.752 280.84 178.755 274.781L178.75 235.117C178.563 213.109 174.744 205.484 183.621 181.352L180.556 181.352Z"/><path fill="#8D99AE" transform="scale(2 2)" d="M304.363 221.437C308.193 212.482 314.365 203.964 320.943 196.841C323.443 194.04 326.561 191.944 328.673 188.8C343.35 166.951 303.431 153.439 298.739 178.629C297.276 186.482 297.397 187.841 288.728 187.493C283.526 187.284 277.614 187.643 272.298 187.426C259.173 186.891 269.594 137.343 311.83 133.313C356.067 131.628 379.235 180.244 351.734 210.191C342.968 219.737 333.224 226.914 330.962 240.958C330.517 242.444 330.738 249.481 328.791 249.926C324.991 250.795 300.102 252.202 299.188 248.346C297.538 241.377 301.466 228.268 304.363 221.437ZM311.83 144.347C294.466 146.003 280.511 159.161 278.283 176.521L287.922 176.521C296.132 140.871 349.004 150.322 341.619 186.029C339.513 196.208 330.623 201.493 324.436 209.258C316.315 219.78 312.961 226.471 310.093 239.56L320.078 239.56C325.434 218.865 330.586 217.988 343.462 203.3C365.379 178.3 343.702 139.863 311.83 144.347Z"/><path fill="#8D99AE" transform="scale(2 2)" d="M316.116 293.149C306.424 293.885 297.97 286.625 297.233 276.933C296.496 267.241 303.756 258.786 313.448 258.049C323.141 257.312 331.596 264.572 332.333 274.265C333.07 283.958 325.809 292.412 316.116 293.149ZM314.569 268.854C312.139 268.894 309.922 270.248 308.778 272.392C307.633 274.535 307.74 277.131 309.058 279.172C310.376 281.214 312.697 282.38 315.122 282.219C318.744 281.979 321.514 278.894 321.364 275.267C321.214 271.64 318.198 268.794 314.569 268.854Z"/><path fill="#8D99AE" transform="scale(2 2)" d="M185.208 326.091C177.572 326.376 176.731 315.229 183.621 313.275C186.615 313.227 187.775 314.31 189.514 316.519C189.539 321.135 190.35 324.37 185.208 326.091Z"/></svg>