<?xml version="1.0" standalone="no"?>
<!DOCTYPE svg PUBLIC "-//W3C//DTD SVG 20010904//EN"
 "http://www.w3.org/TR/2001/REC-SVG-20010904/DTD/svg10.dtd">
<svg version="1.0" xmlns="http://www.w3.org/2000/svg"
 width="1024.000000pt" height="1024.000000pt" viewBox="0 0 1024.000000 1024.000000"
 preserveAspectRatio="xMidYMid meet">

<g transform="translate(0.000000,1024.000000) scale(0.100000,-0.100000)"
fill="#000000" stroke="none">
<path d="M3171 6105 c-169 -31 -316 -142 -397 -300 -74 -143 -74 -142 -74
-758 l0 -547 120 0 120 0 0 539 c0 509 1 542 20 602 37 122 119 212 215 239
69 19 182 9 248 -24 61 -29 134 -102 166 -164 53 -104 54 -120 59 -674 l3
-518 122 0 122 0 2 523 c1 505 2 525 23 586 40 121 118 213 219 263 64 32 195
32 263 1 59 -27 132 -94 165 -151 48 -81 53 -127 59 -572 7 -482 8 -494 82
-569 55 -57 129 -88 231 -97 l68 -7 7 -60 c3 -33 6 -138 6 -233 l0 -174 126 0
126 0 -7 290 -7 290 56 -30 c220 -115 530 -110 732 11 88 53 207 185 254 283
65 134 81 212 89 441 7 182 10 206 35 269 74 192 217 317 391 340 59 8 174
-13 231 -42 58 -30 122 -99 159 -173 61 -120 65 -162 65 -701 l0 -483 125 -2
125 -2 0 487 c0 516 -7 612 -49 735 -87 252 -300 397 -581 397 -175 0 -289
-48 -415 -175 -60 -59 -92 -102 -124 -164 l-44 -84 -45 87 c-53 103 -111 166
-214 233 -110 72 -203 98 -353 98 -96 0 -134 -4 -190 -22 -203 -65 -367 -229
-439 -441 -43 -126 -48 -191 -44 -599 l3 -383 -35 6 c-52 9 -78 29 -91 71 -7
24 -14 193 -19 458 -9 451 -16 515 -65 622 -32 70 -159 200 -232 237 -150 75
-364 75 -507 -2 -65 -34 -162 -131 -211 -211 -21 -33 -39 -61 -41 -61 -1 0
-13 21 -26 47 -40 81 -130 168 -222 214 -128 63 -257 81 -405 54z m2593 -205
c168 -27 293 -163 342 -370 13 -56 17 -115 16 -235 -1 -190 -18 -290 -67 -391
-49 -102 -102 -156 -193 -201 -74 -37 -79 -38 -186 -38 -100 0 -117 3 -168 27
-66 31 -147 106 -177 167 -47 92 -55 150 -55 421 -1 220 2 263 17 315 56 184
167 280 357 309 45 6 54 6 114 -4z"/>
</g>
</svg>
