<?xml version="1.0" encoding="utf-8" ?><svg xmlns="http://www.w3.org/2000/svg" xmlns:xlink="http://www.w3.org/1999/xlink" width="1024" height="1024" viewBox="0 0 1024 1024"><path fill="#8D99AE" transform="scale(2 2)" d="M160.29 134.051L160.256 217.331C160.223 221.538 157.216 224.589 153.052 222.826C148.411 220.86 149.912 214.558 149.947 210.167L149.904 132.593C149.901 122.906 169.645 120.067 178.495 117.101L245.726 94.1221C249.864 92.7053 257.303 89.9212 261.277 89.0513C274.295 87.8023 271.598 104.316 271.564 112.809L399.027 112.797C416.184 112.796 431.52 112.811 431.705 134.363L431.71 372.26C431.757 397.43 422.837 398.529 401.313 398.522L271.564 398.513C271.549 405.394 274.357 425.392 260.379 420.88L173.61 392.538C167.795 390.63 161.922 388.876 156.129 386.91C147.391 383.945 149.957 370.765 149.958 362.765L149.956 299.295C149.944 293.241 149.902 287.17 149.999 281.096C150.116 273.791 159.193 274.014 160.207 279.777C160.668 282.396 160.308 288.174 160.304 291.089L160.29 316.938L160.29 377.651C172.65 380.957 186.055 386.017 198.283 389.956C219.223 396.702 240.453 403.253 261.277 410.315L261.277 99.8686C258.524 100.565 254.11 102.308 251.25 103.3L183.315 126.215C175.827 128.708 167.822 131.911 160.29 134.051ZM271.564 122.973L271.564 142.805L392.6 142.783C397.898 142.768 402.027 141.924 402.133 148.848C402.272 157.832 402.178 166.786 402.177 175.753L402.179 388.254C407.732 388.295 414.919 389.541 418.971 385.39C422.988 379.774 421.41 369.571 421.399 362.55L421.414 142.07C421.419 138.441 421.618 134.235 421.164 130.702C419.848 120.464 402.486 122.966 395.095 122.968L271.564 122.973ZM384.37 153.199L293.743 153.199L293.743 253.624C286.72 260.015 278.459 266.357 271.564 272.666L271.564 388.254L278.625 388.254L391.701 388.254L391.701 153.199C388.893 153.074 387.189 153.07 384.37 153.199ZM271.564 153.199L271.564 258.561C273.604 256.967 276.309 254.608 278.625 253.624C280.392 251.021 280.926 250.618 283.441 248.701L283.441 153.199L271.564 153.199Z"/><path fill="#8D99AE" transform="scale(2 2)" d="M143.338 278.437C144.077 294.738 135.265 286.664 127.906 282.013L82.8443 253.667C71.78 246.856 90.9101 238.77 96.0917 235.591L128.835 215.162C131.282 213.6 135.003 211.018 137.591 210.022C140.559 209.722 141.658 210.706 143.338 213.028C143.587 222.737 143.346 233.481 143.338 243.264L184.696 243.248C191.421 243.247 198.143 243.152 204.882 243.365C211.511 243.409 211.855 253.511 205.504 253.637C199.632 253.753 193.462 253.615 187.567 253.615L143.338 253.624L143.338 278.437ZM132.96 225.197C126.51 228.467 110.175 238.408 104.443 242.909L104.505 243.203L104.735 243.264L132.96 243.264C132.957 237.375 132.842 231.239 133.271 225.386L132.96 225.197ZM102.253 253.624C106.062 255.793 132.03 272.694 132.96 272.666L132.96 253.624C123.608 253.436 111.615 253.413 102.253 253.624Z"/></svg>