<?xml version="1.0" encoding="utf-8" ?><svg xmlns="http://www.w3.org/2000/svg" xmlns:xlink="http://www.w3.org/1999/xlink" width="1024" height="1024" viewBox="0 0 1024 1024"><path fill="#8D99AE" transform="scale(2 2)" d="M223.992 273.566C200.106 255.802 183.65 226.652 176.091 198.307C162.056 145.68 195.809 89.0798 251.636 87.496C275.485 84.6156 302.795 98.4634 317.974 116.219C359.272 164.529 332.953 236.397 288.779 273.566C293.665 280.359 295.909 283.098 302.44 288.356C310.27 277.829 305.748 272.773 322.827 275.703C368.706 283.575 397.576 323.316 401.553 368.617C402.613 380.684 382.152 391.378 372.843 396.185C337.63 414.373 298.548 422.774 259.109 423.99L252.625 423.987C213.366 423.661 169.632 412.781 135.041 394.287C130.215 391.07 120.431 386.994 116.729 382.807C105.37 369.963 114.304 342.139 120.889 327.849C133.927 299.552 166.542 273.75 198.657 274.749C202.279 276.72 206.936 285.867 209.389 289.714C215.835 284.094 219.536 281.088 223.992 273.566ZM252.686 98.6405C207.987 101.038 176.024 144.08 185.067 187.46C193.934 179.737 193.412 173.738 196.39 163.322C202.441 142.161 218.928 146.802 233.633 149.147C242.391 150.544 250.275 150.721 259.109 150.691C271.802 150.631 294.249 144.231 302.95 148.332C319.954 156.347 314.842 165.808 320.635 179.284C321.744 181.864 324.708 185.22 326.602 187.46C328.977 163.942 325.944 144.503 310.768 125.351C297.319 108.38 274.565 97.0453 252.686 98.6405ZM294.042 157.332C269.122 160.893 257.369 164.714 229.832 159.798C213.926 157.488 209.71 154.413 205.827 172.682C203.366 184.258 198.329 192.35 188.213 198.421C193.246 220.86 209.616 246.806 227.103 261.676C256.122 285.407 277.265 274.783 299.389 247.262C311.662 231.995 317.948 217.534 323.71 199.212C316.441 193.927 313.923 191.177 309.939 182.952C305.636 174.068 308.012 158.322 294.042 157.332ZM233.632 280.18C229.722 286.64 222.935 293.326 216.87 297.763C223.615 303.883 230.26 308.044 239.061 310.265C248.23 312.578 245.98 321.97 239.495 321.678C221.734 320.88 201.856 301.135 193.917 286.354C156.86 294.09 133.147 313.923 124.544 352.733C122.429 359.849 119.484 371.919 127.348 376.696C171.6 403.578 233.226 418.977 285.26 410.961C313.882 408.104 374.353 390.232 390.463 369.764C385.261 328.748 360.668 290.355 316.782 286.354C306.405 304.113 297.309 314.894 276.059 321.048C270.788 322.575 264.683 320.758 267.214 313.598C268.165 310.907 275.875 309.644 278.206 308.563C285.455 305.964 289.754 302.255 295.703 297.763C290.253 292.323 282.99 286.856 278.984 280.18C264.14 288.117 248.725 289.614 233.632 280.18Z"/></svg>