<?xml version="1.0" encoding="utf-8" ?><svg xmlns="http://www.w3.org/2000/svg" xmlns:xlink="http://www.w3.org/1999/xlink" width="1024" height="1024" viewBox="0 0 1024 1024"><path fill="#8D99AE" transform="scale(2 2)" d="M224.638 128.68C225.792 122.684 226.448 116.494 227.512 110.452C229.574 98.7318 230.799 91.4916 244.631 91.1075L264.954 91.0795C277.074 91.1503 282.896 93.907 284.52 107.295C285.362 114.245 287.68 121.596 287.405 128.68C301.33 131.15 312.445 136.499 324.484 143.461C329.774 139.63 344.942 128.346 350.163 126.453C361.628 122.298 377.04 143.426 384.382 150.909C392.704 161.987 375.051 177.731 369.003 187.855L368.786 188.222C374.961 202.12 379.337 207.941 383.679 224.333C392.67 226.707 404.453 227.417 412.917 230.981C422.796 235.139 420.085 248.279 420.296 256.645C419.337 276.279 424.104 279.356 399.387 284.632C393.935 285.795 388.743 286.808 383.679 288.204C378.289 302.09 376.411 309.208 368.786 323.253C374.009 330.623 378.88 338.595 384.13 345.987C393.181 358.732 373.289 370.846 365.845 379.296C355.184 391.399 347.691 384.592 337.516 377.67C333.265 374.779 328.567 371.658 324.484 368.484C312.339 373.719 301.027 381.184 287.405 383.412C286.235 389.151 285.378 394.909 284.316 400.686C282.181 412.292 280.991 419.785 267.329 420.064L252.384 420.072C232.165 420.055 231.398 418.667 227.473 398.07C226.545 393.204 225.608 388.276 224.638 383.412C209.876 378.871 200.901 374.214 187.474 368.484C177.603 374.632 163.289 392.549 151.015 383.825C148.037 381.708 130.031 363.737 128.243 360.951C120.71 349.215 137.085 333.748 143.938 324.891C136.45 311.026 133.588 303.364 129.056 288.204C115.927 284.268 92.1638 286.689 91.098 269.084C90.7947 264.074 90.5095 243.514 91.7022 239.218C94.3239 229.776 103.677 229.101 111.698 227.44C117.376 226.265 123.261 224.672 129.056 224.333C130.407 215.897 138.701 194.496 143.938 188.222C132.965 172.59 115.247 159.823 134.47 143.546C142.733 136.559 150.302 121.717 163.266 126.997C167.134 128.573 185.619 140.789 188.68 143.461C198.922 137.106 212.8 129.858 224.638 128.68ZM249.255 102.34C247.185 102.361 242.118 101.871 240.63 103.467C237.96 106.33 236.974 133.46 233.471 136.925C231.824 138.554 221.144 140.614 218.08 141.645C212.008 143.689 205.986 146.147 200.349 149.202C196.535 151.269 192.809 154.343 188.68 155.681C181.119 152.995 162.249 137.092 157.025 137.14C154.568 138.726 136.825 156.426 136.569 158.357C136.302 160.371 141.548 166.242 142.733 167.858L151.366 179.818C157.54 188.254 157.469 186.978 151.906 196.355C147.641 203.543 144.219 211.751 141.882 219.807C140.935 223.07 140.129 229.422 138.103 231.916C135.195 235.496 103.95 238.778 102.466 241.335C101.387 243.195 100.894 270.076 102.787 271.444C107.129 274.583 131.726 275.246 137.872 279.12C140.623 283.699 141.151 290.136 142.775 295.225C144.006 299.08 156.372 325.379 156.209 326.058C155.031 330.972 135.672 350.823 137.203 354.157C138.301 356.546 156.541 374.294 158.779 375.03C160.922 375.735 166.401 370.525 167.939 369.348L179.45 360.602C190.392 352.342 187.849 356.411 199.646 362.2C207.203 366.158 215.255 369.233 223.456 371.554C226.066 372.518 233.011 372.754 233.963 375.777C237.158 385.926 238.159 397.039 240.691 407.382C241.423 410.376 255.903 409.172 258.938 409.184C261.949 409.209 268.876 409.675 271.06 408.222C274.082 403.868 275.487 376.25 279.162 374.356C282.674 372.545 287.889 371.652 291.823 370.44C299.5 368.132 306.868 365.081 313.962 361.351C324.69 355.708 322.794 354.085 333.809 361.619L346.411 370.172C348.566 371.618 351.771 373.884 353.991 375.045C356.341 373.264 374.527 355.463 375.026 353.233C375.493 351.151 358.341 329.803 356.656 324.912C355.244 320.809 360.181 315.684 361.982 312.335C363.952 308.671 375.191 279.104 375.268 279.052C380.243 275.72 407.577 273.875 408.999 269.634C409.419 268.382 409.533 247.09 409.264 244.115C408.725 238.176 392.522 237.422 387.04 236.344C371.538 233.296 375.126 234.607 370.819 220.812C368.163 212.309 364.864 204.372 360.429 196.66C358.741 193.726 355.958 190.358 356.92 186.741C358.343 181.386 376.519 160.611 375.406 158.057C374.665 156.353 356.092 137.67 354.879 137.391C351.819 136.689 336.48 148.806 333.06 151.105C324.708 156.721 323.73 155.572 314.826 150.741C301.496 143.509 293.495 142.622 280.772 138.182C274.571 136.019 276.002 108.313 272.01 103.5C269.828 100.869 252.898 102.336 249.255 102.34Z"/><path fill="#8D99AE" transform="scale(2 2)" d="M251.901 175.041C248.509 170.37 247.897 166.234 254.06 163.756C260.243 163.133 272.129 165.006 278.16 166.647C277.597 168.449 275.295 176.156 274.344 177.242L273.753 177.194C266.499 175.382 259.344 174.798 251.901 175.041Z"/><path fill="#8D99AE" transform="scale(2 2)" d="M287.405 181.262C288.845 177.94 290.165 174.527 291.499 171.159C322.693 183.554 346.239 216.067 347.789 249.616C347.996 254.077 349.164 258.736 343.81 260.508C335.032 262.06 336.622 251.765 336.065 246.292C332.848 214.685 314.007 195.032 287.405 181.262Z"/><path fill="#8D99AE" transform="scale(2 2)" d="M256.87 322.895C219.83 323.43 189.375 293.825 188.862 256.785C188.349 219.745 217.973 189.308 255.013 188.818C292.022 188.328 322.427 217.92 322.939 254.929C323.451 291.937 293.878 322.36 256.87 322.895ZM251.541 200.02C220.656 202.428 197.578 229.43 200.011 260.313C202.444 291.197 229.465 314.252 260.346 311.794C291.192 309.339 314.216 282.356 311.786 251.508C309.356 220.66 282.391 197.615 251.541 200.02Z"/></svg>